<?xml version="1.0" encoding="utf-8"?>
<!-- Generator: Adobe Illustrator 16.0.0, SVG Export Plug-In . SVG Version: 6.00 Build 0)  -->
<!DOCTYPE svg PUBLIC "-//W3C//DTD SVG 1.1//EN" "http://www.w3.org/Graphics/SVG/1.1/DTD/svg11.dtd">
<svg version="1.1" id="Layer_1" xmlns="http://www.w3.org/2000/svg" xmlns:xlink="http://www.w3.org/1999/xlink" x="0px" y="0px"
	 width="175px" height="119px" viewBox="0 0 175 119" enable-background="new 0 0 175 119" xml:space="preserve">
<g>
	<circle fill="#FFFFFF" cx="15.339" cy="42.669" r="15.338"/>
	<path opacity="0.58" d="M21.735,39.39c0.012,0.144,0.012,0.287,0.012,0.43c0,4.361-3.322,9.389-9.39,9.389
		c-1.869,0-3.606-0.542-5.065-1.482c0.265,0.032,0.519,0.043,0.797,0.043c1.541,0,2.962-0.521,4.095-1.41
		c-1.45-0.031-2.666-0.981-3.084-2.288c0.204,0.03,0.407,0.051,0.622,0.051c0.297,0,0.593-0.041,0.868-0.113
		c-1.511-0.305-2.646-1.633-2.646-3.237c0-0.01,0-0.03,0-0.041c0.439,0.246,0.948,0.398,1.491,0.42
		c-0.89-0.594-1.473-1.604-1.473-2.748c0-0.614,0.164-1.176,0.45-1.668c1.625,2.004,4.064,3.312,6.803,3.455
		c-0.05-0.246-0.079-0.5-0.079-0.758c0-1.817,1.469-3.299,3.298-3.299c0.95,0,1.808,0.397,2.411,1.041
		c0.746-0.143,1.461-0.418,2.094-0.797c-0.243,0.768-0.765,1.411-1.45,1.818c0.664-0.071,1.309-0.254,1.9-0.512
		C22.939,38.336,22.38,38.92,21.735,39.39z"/>
</g>
<g>
	<circle fill="#FFFFFF" cx="87.353" cy="42.669" r="15.338"/>
	<path opacity="0.58" d="M91.768,36.989h-1.604c-1.258,0-1.49,0.604-1.49,1.472v1.931h2.99l-0.396,3.022h-2.596v7.755h-3.125v-7.755
		h-2.605v-3.022h2.605v-2.227c0-2.586,1.582-3.994,3.893-3.994c1.104,0,2.053,0.082,2.328,0.122V36.989z"/>
</g>
<g>
	<circle fill="#FFFFFF" cx="51.346" cy="42.669" r="15.338"/>
	<path opacity="0.58" d="M45.379,38.664h-0.02c-1.137,0-1.859-0.774-1.859-1.747c0-0.99,0.758-1.747,1.899-1.747
		c1.153,0,1.868,0.757,1.879,1.747C47.289,37.89,46.553,38.664,45.379,38.664z M47.063,50.168h-3.369V40.043h3.369V50.168z
		 M59.19,50.168h-3.359v-5.416c0-1.356-0.491-2.287-1.706-2.287c-0.931,0-1.482,0.623-1.728,1.226
		c-0.082,0.226-0.113,0.52-0.113,0.826v5.65h-3.358c0.041-9.174,0-10.125,0-10.125h3.358v1.473h-0.021
		c0.438-0.697,1.234-1.707,3.056-1.707c2.217,0,3.871,1.45,3.871,4.555V50.168L59.19,50.168z"/>
</g>
<g>
	<circle fill="#FFFFFF" cx="15.339" cy="78.676" r="15.338"/>
	<path fill="#61A5DB" d="M21.735,75.396c0.012,0.145,0.012,0.287,0.012,0.43c0,4.362-3.322,9.39-9.39,9.39
		c-1.869,0-3.606-0.542-5.065-1.482c0.265,0.033,0.519,0.043,0.797,0.043c1.541,0,2.962-0.521,4.095-1.41
		c-1.45-0.03-2.666-0.98-3.084-2.287c0.204,0.029,0.407,0.051,0.622,0.051c0.297,0,0.593-0.041,0.868-0.113
		c-1.511-0.305-2.646-1.633-2.646-3.237c0-0.01,0-0.029,0-0.041c0.439,0.246,0.948,0.398,1.491,0.42
		c-0.89-0.594-1.473-1.604-1.473-2.748c0-0.613,0.164-1.176,0.45-1.668c1.625,2.004,4.064,3.312,6.803,3.455
		c-0.05-0.246-0.079-0.5-0.079-0.758c0-1.816,1.469-3.299,3.298-3.299c0.95,0,1.808,0.396,2.411,1.041
		c0.746-0.143,1.461-0.418,2.094-0.797c-0.243,0.768-0.765,1.411-1.45,1.818c0.664-0.071,1.309-0.254,1.9-0.512
		C22.939,74.343,22.38,74.927,21.735,75.396z"/>
</g>
<g>
	<circle fill="#FFFFFF" cx="87.353" cy="78.676" r="15.338"/>
	<path fill="#415C96" d="M91.768,72.996h-1.604c-1.258,0-1.49,0.604-1.49,1.472v1.931h2.99l-0.396,3.022h-2.596v7.755h-3.125v-7.755
		h-2.605v-3.022h2.605v-2.227c0-2.586,1.582-3.994,3.893-3.994c1.104,0,2.053,0.082,2.328,0.122V72.996z"/>
</g>
<g>
	<circle fill="#FFFFFF" cx="51.346" cy="78.676" r="15.338"/>
	<path fill="#397AB3" d="M45.379,74.671h-0.02c-1.137,0-1.859-0.774-1.859-1.747c0-0.99,0.758-1.747,1.899-1.747
		c1.153,0,1.868,0.757,1.879,1.747C47.289,73.896,46.553,74.671,45.379,74.671z M47.063,86.175h-3.369V76.05h3.369V86.175z
		 M59.19,86.175h-3.359v-5.416c0-1.355-0.491-2.287-1.706-2.287c-0.931,0-1.482,0.623-1.728,1.227
		c-0.082,0.226-0.113,0.52-0.113,0.826v5.649h-3.358c0.041-9.174,0-10.125,0-10.125h3.358v1.473h-0.021
		c0.438-0.697,1.234-1.707,3.056-1.707c2.217,0,3.871,1.45,3.871,4.556V86.175L59.19,86.175z"/>
</g>
<g>
	<path fill="#FFFFFF" d="M19.034,117.766c0,0.34-0.274,0.613-0.612,0.613H0.613c-0.338,0-0.612-0.273-0.612-0.613V99.957
		c0-0.338,0.274-0.611,0.612-0.611h17.809c0.338,0,0.612,0.273,0.612,0.611V117.766z"/>
	<path opacity="0.42" d="M14.438,106.34c0.008,0.109,0.008,0.219,0.008,0.328c0,3.357-2.555,7.223-7.223,7.223
		c-1.438,0-2.774-0.416-3.897-1.139c0.204,0.023,0.4,0.031,0.612,0.031c1.188,0,2.279-0.4,3.152-1.084
		c-1.116-0.023-2.052-0.756-2.374-1.762c0.157,0.023,0.315,0.041,0.479,0.041c0.229,0,0.455-0.033,0.668-0.088
		c-1.164-0.234-2.035-1.26-2.035-2.49c0-0.008,0-0.023,0-0.031c0.338,0.188,0.73,0.305,1.147,0.322
		c-0.685-0.457-1.132-1.234-1.132-2.113c0-0.473,0.126-0.904,0.346-1.283c1.25,1.541,3.128,2.547,5.233,2.656
		c-0.038-0.188-0.062-0.385-0.062-0.58c0-1.4,1.131-2.539,2.537-2.539c0.731,0,1.392,0.307,1.854,0.801
		c0.574-0.109,1.124-0.32,1.612-0.611c-0.189,0.588-0.59,1.084-1.116,1.398c0.51-0.055,1.006-0.197,1.461-0.393
		C15.365,105.529,14.932,105.977,14.438,106.34z"/>
</g>
<g>
	<path opacity="0.42" d="M43.398,117.766c0,0.34-0.274,0.613-0.612,0.613H24.978c-0.338,0-0.612-0.273-0.612-0.613V99.957
		c0-0.338,0.274-0.611,0.612-0.611h17.809c0.338,0,0.612,0.273,0.612,0.611L43.398,117.766L43.398,117.766z"/>
	<path fill="#FFFFFF" d="M38.802,106.34c0.008,0.109,0.008,0.219,0.008,0.328c0,3.357-2.555,7.223-7.223,7.223
		c-1.438,0-2.774-0.416-3.897-1.139c0.204,0.023,0.4,0.031,0.612,0.031c1.188,0,2.279-0.4,3.152-1.084
		c-1.116-0.023-2.052-0.756-2.374-1.762c0.157,0.023,0.315,0.041,0.479,0.041c0.229,0,0.455-0.033,0.668-0.088
		c-1.164-0.234-2.035-1.26-2.035-2.49c0-0.008,0-0.023,0-0.031c0.338,0.188,0.73,0.305,1.147,0.322
		c-0.685-0.457-1.132-1.234-1.132-2.113c0-0.473,0.126-0.904,0.346-1.283c1.25,1.541,3.128,2.547,5.233,2.656
		c-0.038-0.188-0.062-0.385-0.062-0.58c0-1.4,1.131-2.539,2.537-2.539c0.731,0,1.392,0.307,1.854,0.801
		c0.574-0.109,1.124-0.32,1.612-0.611c-0.189,0.588-0.59,1.084-1.116,1.398c0.51-0.055,1.006-0.197,1.461-0.393
		C39.73,105.529,39.296,105.977,38.802,106.34z"/>
</g>
<g>
	<rect x="0.001" fill="none" width="22" height="22"/>
	<g opacity="0.9">
		<circle cx="2.059" cy="11" r="2.059"/>
		<circle cx="11.002" cy="11" r="2.059"/>
		<circle cx="19.942" cy="11" r="2.059"/>
	</g>
</g>
<g>
	<rect x="27.325" fill="none" width="22" height="22"/>
	<path opacity="0.9" d="M49.29,10.744c-0.008-0.049-0.029-0.131-0.047-0.178c-0.034-0.092-0.081-0.178-0.158-0.281
		c-0.002-0.002-0.004-0.004-0.005-0.006c-0.028-0.045-0.062-0.086-0.099-0.125l-3.703-3.78c-0.449-0.451-1.24-0.452-1.684-0.011
		c-0.468,0.457-0.476,1.213-0.017,1.684l1.718,1.755H28.517c-0.656,0-1.191,0.534-1.191,1.191c0,0.657,0.535,1.19,1.191,1.19h16.779
		l-1.718,1.756c-0.224,0.228-0.346,0.528-0.341,0.848c0.003,0.316,0.13,0.613,0.355,0.835c0.224,0.222,0.521,0.343,0.834,0.343
		c0.32,0,0.631-0.131,0.854-0.357l3.692-3.772v-0.001c0.025-0.025,0.051-0.053,0.072-0.081c0.084-0.099,0.148-0.206,0.178-0.289
		c0.027-0.062,0.049-0.122,0.06-0.188c0.021-0.069,0.042-0.211,0.042-0.282C49.325,10.869,49.3,10.77,49.29,10.744z"/>
</g>
</svg>
