<?xml version="1.0" encoding="utf-8"?>
<!-- Generator: Adobe Illustrator 25.2.1, SVG Export Plug-In . SVG Version: 6.00 Build 0)  -->
<svg version="1.1" id="Layer_1" xmlns="http://www.w3.org/2000/svg" xmlns:xlink="http://www.w3.org/1999/xlink" x="0px" y="0px"
	 viewBox="0 0 80 26" style="enable-background:new 0 0 80 26;" xml:space="preserve">
<style type="text/css">
	.st0{fill-rule:evenodd;clip-rule:evenodd;fill:#05843E;}
	.st1{fill:#05843E;}
</style>
<g>
	<path class="st0" d="M50.1,2.2c0,1.2-1,2.2-2.2,2.2c-1.2,0-2.1-1-2.1-2.2c0-1.2,1-2.2,2.3-2.1C49.2,0,50.1,0.9,50.1,2.2z"/>
	<g>
		<rect x="46.3" y="6.9" class="st1" width="3.3" height="16.7"/>
	</g>
	<g>
		<path class="st1" d="M34.8,24c-4.3,0-7.9-3.5-7.9-7.9V6.9h3.7v9.3c0,2.3,1.9,4.2,4.2,4.2c2.3,0,4.2-1.9,4.2-4.2V6.9h3.7v9.3
			C42.6,20.4,39.1,24,34.8,24z"/>
	</g>
	<path class="st1" d="M63.1,6.8C60.7,7,58.6,8,56.7,9.9v-3h-3.3v16.7h3.3v-6.7c0-2.9,1.4-5.1,3.8-5.9C61.1,9.4,62,7.9,63.1,6.8z"/>
	<path class="st1" d="M76,18.5c-1.2,1.7-2.8,2.3-4.8,2c-2.1-0.3-3.4-1.5-4.1-3.5c-0.1-0.4-0.1-0.8-0.2-1.2c0,0,12.4,0,12.9,0
		c0.6-4.5-2.5-8.7-6.8-9.3c-4.6-0.7-8.9,2.4-9.5,7c-0.6,4.4,1.2,8.9,6.9,9.9c4.2,0.8,8.2-2.2,8.8-5L76,18.5L76,18.5z M67.1,12.9
		c0.5-1.8,2.4-3.3,4.4-3.4c2.1-0.1,3.9,1,4.5,2.9c0.1,0.3,0.2,0.5,0.3,1h-9.4C67,13.2,67.1,13,67.1,12.9z"/>
	<path class="st1" d="M24.2,21.1c-0.5-1.6-1.3-2.8-2.3-3.7c0.7-1.5,1.2-3.2,1.2-5C23.1,6,18,0.9,11.6,0.9C5.3,0.9,0.1,6,0.1,12.4
		s5.2,11.5,11.5,11.5c2.4,0,4.7-0.7,6.5-2c-4,0.3-10.4-0.2-13.2-5.5h0c-0.7-1.2-1.1-2.5-1.1-4c0-4.3,3.5-7.8,7.8-7.8
		c4.3,0,7.8,3.5,7.8,7.8c0,1.1-0.2,2.1-0.6,3c0,0,0,0-0.1,0c-0.3-0.2-2.9-1.4-3.2-1.6c-1.5-0.8-3-1.6-3.7-2.7
		c-0.1,0.3-0.2,0.5-0.3,1.1c-0.1,1.2,0.8,2.6,1.9,3.8c1,1,2.1,2,3.4,2.8c2.1,1.4,6.1,4,6.7,7.3c0.1-0.2,0.3-0.5,0.4-0.8
		C24.5,23.8,24.6,22.2,24.2,21.1z"/>
</g>
</svg>
