<?xml version="1.0" encoding="utf-8"?>
<!-- Generator: Adobe Illustrator 25.2.1, SVG Export Plug-In . SVG Version: 6.00 Build 0)  -->
<svg version="1.1" id="Layer_1" xmlns="http://www.w3.org/2000/svg" xmlns:xlink="http://www.w3.org/1999/xlink" x="0px" y="0px"
	 viewBox="0 0 34 34" style="enable-background:new 0 0 34 34;" xml:space="preserve">
<style type="text/css">
	.st0{fill:none;}
	.st1{fill:#7F80EC;}
</style>
<g>
	<rect y="0" class="st0" width="34" height="34"/>
	<g>
		<path class="st1" d="M19.5,18.1l-4.3-2l-2.6-5.4c-0.2-0.3-0.5-0.6-0.9-0.6s-0.7,0.2-0.9,0.6L8.3,16l-4.3,2
			c-0.4,0.2-0.6,0.5-0.6,0.9c0,0.4,0.2,0.7,0.6,0.9l4.3,2l2.6,5.4c0.2,0.3,0.5,0.6,0.9,0.6s0.7-0.2,0.9-0.6l2.6-5.4l4.3-2
			c0.4-0.2,0.6-0.5,0.6-0.9C20.1,18.6,19.9,18.2,19.5,18.1z M14,20.2c-0.2,0.1-0.4,0.3-0.5,0.5l-1.8,3.8l-1.8-3.8
			c-0.1-0.2-0.3-0.4-0.5-0.5L6.8,19l2.7-1.3c0.2-0.1,0.4-0.3,0.5-0.5l1.8-3.8l1.8,3.8c0.1,0.2,0.3,0.4,0.5,0.5l2.7,1.3L14,20.2z"/>
		<path class="st1" d="M30,9.5l-3.2-1.4l-1.9-3.8C24.7,4,24.3,3.8,24,3.8S23.2,4,23.1,4.4l-1.9,3.8l-3.2,1.4
			c-0.4,0.2-0.6,0.5-0.6,0.9c0,0.4,0.2,0.8,0.6,0.9l3.2,1.4l1.9,3.8c0.2,0.3,0.5,0.5,0.9,0.5s0.7-0.2,0.9-0.5l1.9-3.8l3.2-1.4
			c0.4-0.2,0.6-0.5,0.6-0.9C30.6,10,30.4,9.7,30,9.5z M25.6,11.1c-0.2,0.1-0.4,0.3-0.5,0.5L24,13.9l-1.2-2.3
			c-0.1-0.2-0.3-0.4-0.5-0.5l-1.4-0.6l1.4-0.6c0.2-0.1,0.4-0.3,0.5-0.5L24,7l1.2,2.3c0.1,0.2,0.3,0.4,0.5,0.5l1.4,0.6L25.6,11.1z"/>
		<path class="st1" d="M29.6,24l-2.3-0.9l-1.4-2.8c-0.2-0.3-0.5-0.6-0.9-0.6s-0.7,0.2-0.9,0.6l-1.4,2.8L20.4,24
			c-0.4,0.1-0.6,0.5-0.6,0.9s0.3,0.8,0.6,0.9l2.3,0.9l1.4,2.8c0.2,0.3,0.5,0.6,0.9,0.6c0.4,0,0.7-0.2,0.9-0.6l1.4-2.8l2.3-0.9
			c0.4-0.1,0.6-0.5,0.6-0.9S29.9,24.2,29.6,24z M26.2,25.1c-0.2,0.1-0.4,0.3-0.5,0.5L25,26.9l-0.7-1.3c-0.1-0.2-0.3-0.4-0.5-0.5
			L23.5,25l0.2-0.1c0.2-0.1,0.4-0.3,0.5-0.5L25,23l0.7,1.3c0.1,0.2,0.3,0.4,0.5,0.5l0.2,0.1L26.2,25.1z"/>
	</g>
</g>
</svg>
