<?xml version="1.0" encoding="utf-8"?>
<!-- Generator: Adobe Illustrator 25.2.1, SVG Export Plug-In . SVG Version: 6.00 Build 0)  -->
<svg version="1.1" id="Layer_1" xmlns="http://www.w3.org/2000/svg" xmlns:xlink="http://www.w3.org/1999/xlink" x="0px" y="0px"
	 viewBox="0 0 24.5 26" style="enable-background:new 0 0 24.5 26;" xml:space="preserve">
<style type="text/css">
	.st0{fill:#FFFFFF;}
</style>
<g>
	<path class="st0" d="M22,17.4c0.7-1.5,1.2-3.2,1.2-5C23.1,6,18,0.9,11.6,0.9C5.3,0.9,0.1,6,0.1,12.4s5.2,11.5,11.5,11.5
		c2.4,0,4.7-0.7,6.5-2c-4,0.3-10.4-0.2-13.2-5.5l0,0c-0.7-1.2-1.1-2.5-1.1-4c0-4.3,3.5-7.8,7.8-7.8s7.8,3.5,7.8,7.8
		c0,1.1-0.2,2.1-0.6,3c0,0,0,0-0.1,0c-0.3-0.2-2.9-1.4-3.2-1.6c-1.5-0.8-3-1.6-3.7-2.7c-0.1,0.3-0.2,0.5-0.3,1.1
		c-0.1,1.2,0.8,2.6,1.9,3.8c1,1,2.1,2,3.4,2.8c2.1,1.4,6.1,4,6.7,7.3c0.1-0.2,0.3-0.5,0.4-0.8c0.6-1.4,0.6-2.9,0.3-4.1
		C23.7,19.5,22.9,18.3,22,17.4z"/>
</g>
</svg>
